<svg width="42" height="42" viewBox="0 0 42 42" fill="none" xmlns="http://www.w3.org/2000/svg">
<path d="M28.7708 17.4583C31.072 17.4583 32.9375 15.5929 32.9375 13.2917C32.9375 10.9905 31.072 9.125 28.7708 9.125C26.4696 9.125 24.6042 10.9905 24.6042 13.2917C24.6042 15.5929 26.4696 17.4583 28.7708 17.4583Z" fill="black"/>
<path d="M39.5833 0.95833C37.2445 0.434514 34.8552 0.169035 32.4583 0.166663C30.1948 0.0229422 27.9251 0.328118 25.7799 1.06464C23.6347 1.80116 21.6563 2.9545 19.9583 4.45833C17.7222 6.69444 15.507 8.92361 13.3125 11.1458C10.7917 10.875 4.81251 10.7292 0.812514 14.7708C0.424491 15.1612 0.206696 15.6892 0.206696 16.2396C0.206696 16.79 0.424491 17.318 0.812514 17.7083L24.3542 41.2917C24.7445 41.6797 25.2725 41.8975 25.8229 41.8975C26.3733 41.8975 26.9013 41.6797 27.2917 41.2917C31.3542 37.125 31.2292 31.25 30.9792 28.7917L37.6667 22.125C44.3125 15.4792 41.2917 3 41.1667 2.47916C41.0705 2.1034 40.8713 1.76195 40.5916 1.49326C40.3119 1.22457 39.9627 1.03931 39.5833 0.95833ZM34.6667 19.1875L27.25 26.5625C27.0098 26.805 26.8329 27.1029 26.7348 27.4298C26.6367 27.7568 26.6205 28.1028 26.6875 28.4375C27.1376 31.2246 26.7459 34.0826 25.5625 36.6458L5.41668 16.4583C8.02054 15.2599 10.9313 14.8961 13.75 15.4167C14.0835 15.4601 14.4225 15.4221 14.7382 15.306C15.0538 15.1899 15.3366 14.9992 15.5625 14.75C15.5625 14.75 18.4792 11.7292 22.875 7.33333C25.578 5.16274 29.0002 4.09144 32.4583 4.33333C34.085 4.34139 35.7083 4.48073 37.3125 4.75C37.8125 7.72916 38.6042 15.25 34.6667 19.1875Z" fill="black"/>
<path d="M6.41667 29.3333C2.25 31.4167 2.25 39.75 2.25 39.75C6.10639 39.64 9.79823 38.1633 12.6667 35.5833L6.41667 29.3333Z" fill="black"/>
</svg>
