<svg width="40" height="42" viewBox="0 0 40 42" fill="none" xmlns="http://www.w3.org/2000/svg">
<path d="M39.5833 0.479172L37.0833 1.3125C32.7988 2.80114 28.2235 3.25796 23.7292 2.64584C19.0066 1.91295 14.1728 2.56421 9.81251 4.52084C7.50101 5.5051 5.47242 7.05191 3.91142 9.02044C2.35042 10.989 1.30661 13.3167 0.875013 15.7917C0.435988 18.1718 0.480897 20.6159 1.00706 22.9783C1.53323 25.3407 2.52987 27.5729 3.93751 29.5417C3.81251 29.9792 3.68751 30.4167 3.58335 30.8542C2.73718 34.4521 2.31763 38.1372 2.33335 41.8333H6.50001C6.69584 38.808 7.1066 35.8004 7.72918 32.8333C10.6197 34.3942 13.8612 35.1902 17.1458 35.1458C20.2093 35.1437 23.2413 34.5274 26.0625 33.3333C41.9167 26.5625 39.8333 4.04167 39.8333 3.10417L39.5833 0.479172ZM24.4375 29.5C19 31.8125 12.5 31.4167 8.85418 28.5625C9.47036 26.5021 10.3159 24.5175 11.375 22.6458C12.1983 21.2988 13.1696 20.048 14.2708 18.9167C15.3961 17.7733 16.6634 16.7791 18.0417 15.9583C20.8897 14.2553 24.0484 13.1364 27.3333 12.6667V10.5833C23.5537 10.4525 19.7973 11.2238 16.375 12.8333C12.8759 14.5407 9.9084 17.1697 7.79168 20.4375C7.00662 21.6856 6.31045 22.9874 5.70835 24.3333C4.74277 21.8632 4.46906 19.1766 4.91668 16.5625C5.20996 14.7324 5.96439 13.007 7.10887 11.5491C8.25335 10.0912 9.75019 8.94863 11.4583 8.22917C13.9492 7.06492 16.6672 6.46725 19.4167 6.47917C20.7083 6.47917 21.9792 6.60417 23.3125 6.70834C27.4882 7.24709 31.7278 6.99978 35.8125 5.97917C35.6667 11.7292 34.625 25.1667 24.4375 29.5Z" fill="black"/>
</svg>
