<svg width="42" height="42" viewBox="0 0 42 42" fill="none" xmlns="http://www.w3.org/2000/svg">
<path d="M21 0.166672C9.51251 0.166672 0.166672 9.51251 0.166672 21V29.6313C0.166672 31.7646 2.03542 33.5 4.33334 33.5H6.41667C6.96921 33.5 7.49911 33.2805 7.88981 32.8898C8.28051 32.4991 8.5 31.9692 8.5 31.4167V20.7021C8.5 20.1496 8.28051 19.6196 7.88981 19.2289C7.49911 18.8382 6.96921 18.6188 6.41667 18.6188H4.525C5.68334 10.5563 12.6208 4.33334 21 4.33334C29.3792 4.33334 36.3167 10.5563 37.475 18.6188H35.5833C35.0308 18.6188 34.5009 18.8382 34.1102 19.2289C33.7195 19.6196 33.5 20.1496 33.5 20.7021V33.5C33.5 35.7979 31.6313 37.6667 29.3333 37.6667H25.1667V35.5833H16.8333V41.8333H29.3333C33.9292 41.8333 37.6667 38.0958 37.6667 33.5C39.9646 33.5 41.8333 31.7646 41.8333 29.6313V21C41.8333 9.51251 32.4875 0.166672 21 0.166672Z" fill="black"/>
</svg>
